# xmcd CD database file
#
# Track frame offsets:
#	150
#	24050
#	49735
#	101663
#	151030
#	202490
#	231730
#	303370
#
# Disc length: 4463 seconds
#
# Revision: 0
# Processed by: cddbd v1.5PL3 Copyright (c) Steve Scherf et al.
# Submitted via: CDex 1.51
#
DISCID=64116d08
DTITLE=Professor Trance and the Energisers - The Breath of Fire
DYEAR=1900
DGENRE=New Age
TTITLE0=Breath of Fire - Dreamtime
TTITLE1=Sacred Visions
TTITLE2=Ancient Whispers
TTITLE3=Deep Awakening
TTITLE4=Liquid Energy
TTITLE5=Dance of Energisers
TTITLE6=Extended Dance Mix
TTITLE7=Climbing (Live Mix)
EXTD=
EXTT0=
EXTT1=
EXTT2=
EXTT3=
EXTT4=
EXTT5=
EXTT6=
EXTT7=
PLAYORDER=
